<?xml version="1.0" encoding="utf-8"?>
<!-- Generator: Adobe Illustrator 12.0.0, SVG Export Plug-In . SVG Version: 6.00 Build 51448)  -->
<!DOCTYPE svg PUBLIC "-//W3C//DTD SVG 1.1//EN" "http://www.w3.org/Graphics/SVG/1.1/DTD/svg11.dtd" [
	<!ENTITY ns_svg "http://www.w3.org/2000/svg">
	<!ENTITY ns_xlink "http://www.w3.org/1999/xlink">
]>
<svg  version="1.1" id="Layer_1" xmlns="&ns_svg;" xmlns:xlink="&ns_xlink;" width="126" height="27" viewBox="0 0 126 27"
	 overflow="visible" enable-background="new 0 0 126 27" xml:space="preserve">
<g>
	<path fill="#ADAFB2" d="M4.029,18.512v8.418H0.025V0.372h4.003v9.467L8.92,0.372h4.268L7.709,11.204l6.425,15.726H9.429
		L5.227,16.148L4.029,18.512z"/>
	<path fill="#ADAFB2" d="M22.073,0.054c1.764,0,3.265,0.622,4.5,1.863c1.236,1.243,1.854,2.74,1.854,4.49v14.487
		c0,1.764-0.623,3.266-1.864,4.498c-1.243,1.235-2.74,1.854-4.49,1.854c-1.766,0-3.262-0.621-4.49-1.863
		c-1.229-1.241-1.843-2.739-1.843-4.489V6.408c0-1.765,0.622-3.265,1.864-4.5C18.846,0.673,20.336,0.054,22.073,0.054z
		 M24.254,6.323c0-0.635-0.222-1.175-0.667-1.62c-0.444-0.445-0.984-0.667-1.62-0.667c-0.636,0-1.18,0.222-1.631,0.667
		c-0.452,0.444-0.679,0.985-0.679,1.62v14.528c0,0.635,0.227,1.176,0.679,1.619c0.451,0.445,0.995,0.668,1.631,0.668
		c0.635,0,1.175-0.223,1.62-0.668c0.445-0.443,0.667-0.984,0.667-1.619V6.323z"/>
	<path fill="#ADAFB2" d="M35.543,15.811L30.185,0.372h4.406l2.965,9.531l2.943-9.531h4.426l-5.379,15.438V26.93h-4.002
		L35.543,15.811L35.543,15.811z"/>
	<path fill="#ADAFB2" d="M52.994,0.054c1.765,0,3.265,0.622,4.5,1.863c1.235,1.243,1.854,2.74,1.854,4.49v14.487
		c0,1.764-0.622,3.266-1.864,4.498c-1.242,1.235-2.739,1.854-4.49,1.854c-1.765,0-3.261-0.621-4.49-1.863
		c-1.228-1.241-1.842-2.739-1.842-4.489V6.408c0-1.765,0.622-3.265,1.864-4.5C49.767,0.673,51.257,0.054,52.994,0.054z
		 M55.175,6.323c0-0.635-0.222-1.175-0.668-1.62c-0.444-0.445-0.984-0.667-1.619-0.667c-0.636,0-1.18,0.222-1.631,0.667
		c-0.452,0.444-0.678,0.985-0.678,1.62v14.528c0,0.635,0.226,1.176,0.678,1.619c0.451,0.445,0.995,0.668,1.631,0.668
		c0.635,0,1.175-0.223,1.619-0.668c0.446-0.443,0.668-0.984,0.668-1.619V6.323z"/>
	<path fill="#ADAFB2" d="M69.195,0.393c2.229,0,3.867,0.614,4.912,1.843c0.918,1.073,1.377,2.57,1.377,4.49v3.854
		c0,1.878-0.713,3.465-2.141,4.764l2.967,11.586h-4.328l-2.428-9.996c-0.113,0-0.232,0-0.359,0h-2.31v9.996h-4.003V0.393H69.195z
		 M71.587,6.789c0-1.539-0.761-2.309-2.286-2.309h-2.414v8.493h2.414c0.637,0,1.176-0.227,1.621-0.679
		c0.443-0.451,0.665-0.995,0.665-1.63V6.789z"/>
	<path fill="#ADAFB2" d="M79.741,26.93V0.372h11.395v4.025h-7.392v7.242h5.4v4.023h-5.4v7.244h7.392v4.023H79.741L79.741,26.93z"/>
	<path fill="#ADAFB2" d="M107.127,20.322c0.027,1.85-0.454,3.432-1.441,4.744c-0.648,0.889-1.565,1.518-2.752,1.885
		c-0.637,0.197-1.377,0.297-2.225,0.297c-1.566,0-2.866-0.389-3.896-1.166c-0.86-0.635-1.543-1.5-2.045-2.594
		c-0.5-1.094-0.793-2.348-0.877-3.76l3.811-0.275c0.172,1.547,0.578,2.668,1.229,3.363c0.479,0.524,1.03,0.774,1.652,0.746
		c0.876-0.027,1.572-0.459,2.098-1.293c0.269-0.41,0.401-0.996,0.401-1.761c0-1.102-0.502-2.196-1.504-3.284
		c-0.791-0.748-1.978-1.873-3.56-3.372c-1.326-1.285-2.266-2.437-2.815-3.455c-0.593-1.145-0.89-2.388-0.89-3.731
		c0-2.416,0.813-4.247,2.437-5.49c1.002-0.749,2.244-1.124,3.728-1.124c1.426,0,2.646,0.317,3.662,0.953
		c0.793,0.495,1.432,1.187,1.918,2.076s0.779,1.914,0.879,3.071l-3.834,0.698c-0.112-1.087-0.422-1.934-0.932-2.542
		c-0.367-0.437-0.896-0.656-1.588-0.656c-0.734,0-1.293,0.325-1.673,0.974c-0.312,0.522-0.466,1.172-0.466,1.948
		c0,1.215,0.521,2.45,1.564,3.707c0.396,0.48,0.989,1.045,1.779,1.694c0.934,0.777,1.547,1.32,1.844,1.631
		c0.987,0.989,1.75,1.961,2.286,2.92c0.256,0.453,0.46,0.869,0.615,1.252C106.915,18.727,107.111,19.574,107.127,20.322z"/>
	<path fill="#ADAFB2" d="M114.137,4.417h-4.257V0.393h12.494v4.024h-4.235V26.93h-4.002V4.417L114.137,4.417z"/>
</g>
<g>
	<path fill="#FFFFFF" d="M4.303,18.174v8.418H0.3V0.033h4.003V9.5l4.892-9.467h4.268L7.984,10.866l6.425,15.726H9.704L5.501,15.811
		L4.303,18.174z"/>
	<path fill="#FFFFFF" d="M22.348-0.284c1.764,0,3.265,0.622,4.5,1.863c1.236,1.243,1.854,2.74,1.854,4.49v14.488
		c0,1.764-0.623,3.266-1.864,4.498c-1.243,1.235-2.74,1.854-4.49,1.854c-1.766,0-3.262-0.621-4.49-1.863
		c-1.229-1.241-1.843-2.739-1.843-4.489V6.069c0-1.765,0.622-3.265,1.864-4.5C19.121,0.334,20.611-0.284,22.348-0.284z
		 M24.529,5.984c0-0.635-0.222-1.175-0.667-1.62c-0.444-0.445-0.984-0.667-1.62-0.667c-0.636,0-1.18,0.222-1.631,0.667
		c-0.452,0.444-0.679,0.985-0.679,1.62v14.53c0,0.635,0.227,1.176,0.679,1.618c0.451,0.445,0.995,0.668,1.631,0.668
		c0.635,0,1.175-0.223,1.62-0.668c0.445-0.442,0.667-0.983,0.667-1.618V5.984z"/>
	<path fill="#FFFFFF" d="M35.817,15.473L30.459,0.033h4.406l2.965,9.531l2.943-9.531h4.426L39.82,15.473v11.119h-4.002
		L35.817,15.473L35.817,15.473z"/>
	<path fill="#FFFFFF" d="M53.268-0.284c1.765,0,3.265,0.622,4.5,1.863c1.235,1.243,1.854,2.74,1.854,4.49v14.488
		c0,1.764-0.622,3.266-1.864,4.498c-1.242,1.235-2.739,1.854-4.49,1.854c-1.765,0-3.261-0.621-4.49-1.863
		c-1.228-1.241-1.842-2.739-1.842-4.489V6.069c0-1.765,0.622-3.265,1.864-4.5C50.042,0.334,51.532-0.284,53.268-0.284z M55.45,5.984
		c0-0.635-0.222-1.175-0.668-1.62c-0.444-0.445-0.984-0.667-1.619-0.667c-0.636,0-1.18,0.222-1.631,0.667
		c-0.452,0.444-0.678,0.985-0.678,1.62v14.53c0,0.635,0.226,1.176,0.678,1.618c0.451,0.445,0.995,0.668,1.631,0.668
		c0.635,0,1.175-0.223,1.619-0.668c0.446-0.442,0.668-0.983,0.668-1.618V5.984z"/>
	<path fill="#AFAFAF" d="M69.471,0.054c2.229,0,3.867,0.614,4.912,1.843c0.917,1.073,1.377,2.57,1.377,4.49v3.854
		c0,1.878-0.714,3.466-2.141,4.764l2.966,11.586h-4.328l-2.428-9.995c-0.113,0-0.231,0-0.358,0h-2.31v9.995h-4.003V0.054H69.471z
		 M71.861,6.451c0-1.539-0.762-2.309-2.286-2.309h-2.414v8.493h2.414c0.636,0,1.176-0.227,1.62-0.679
		c0.443-0.451,0.666-0.995,0.666-1.63V6.451z"/>
	<path fill="#AFAFAF" d="M80.016,26.592V0.033H91.41v4.025h-7.393V11.3h5.4v4.024h-5.4v7.244h7.393v4.022L80.016,26.592
		L80.016,26.592z"/>
	<path fill="#AFAFAF" d="M107.4,19.984c0.027,1.85-0.453,3.432-1.44,4.744c-0.649,0.889-1.565,1.518-2.753,1.885
		c-0.637,0.197-1.376,0.297-2.225,0.297c-1.566,0-2.865-0.389-3.896-1.166c-0.86-0.635-1.543-1.5-2.045-2.594
		c-0.5-1.094-0.794-2.349-0.878-3.76l3.811-0.275c0.172,1.547,0.58,2.668,1.229,3.363c0.479,0.524,1.03,0.774,1.651,0.746
		c0.877-0.027,1.574-0.459,2.098-1.293c0.27-0.41,0.402-0.996,0.402-1.761c0-1.103-0.502-2.196-1.504-3.285
		c-0.791-0.747-1.978-1.872-3.56-3.372c-1.327-1.285-2.267-2.437-2.815-3.455c-0.594-1.145-0.891-2.388-0.891-3.731
		c0-2.416,0.813-4.247,2.438-5.49c1.002-0.749,2.244-1.124,3.728-1.124c1.426,0,2.646,0.317,3.662,0.953
		c0.792,0.495,1.431,1.187,1.917,2.076c0.486,0.889,0.779,1.914,0.88,3.071l-3.834,0.698c-0.112-1.087-0.423-1.934-0.933-2.542
		c-0.366-0.437-0.896-0.656-1.588-0.656c-0.733,0-1.293,0.325-1.672,0.974c-0.313,0.522-0.467,1.172-0.467,1.948
		c0,1.215,0.522,2.45,1.565,3.707c0.396,0.48,0.989,1.045,1.778,1.694c0.934,0.777,1.547,1.32,1.844,1.631
		c0.988,0.989,1.75,1.962,2.287,2.921c0.256,0.453,0.459,0.869,0.615,1.252C107.189,18.389,107.387,19.236,107.4,19.984z"/>
	<path fill="#AFAFAF" d="M114.411,4.079h-4.257V0.054h12.494v4.024h-4.235v22.513h-4.002V4.079z"/>
</g>
</svg>
